<?xml version="1.0" standalone="no"?>
<!DOCTYPE svg PUBLIC "-//W3C//DTD SVG 20010904//EN"
 "http://www.w3.org/TR/2001/REC-SVG-20010904/DTD/svg10.dtd">
<svg version="1.0" xmlns="http://www.w3.org/2000/svg"
 width="1024.000000pt" height="1024.000000pt" viewBox="0 0 1024.000000 1024.000000"
 preserveAspectRatio="xMidYMid meet">
<metadata>
Created by potrace 1.14, written by Peter Selinger 2001-2017
</metadata>
<g transform="translate(0.000000,1024.000000) scale(0.100000,-0.100000)"
fill="#000000" stroke="none">
<path d="M4827 10234 c-2 -2 -36 -6 -76 -9 -41 -3 -85 -7 -100 -10 -14 -2 -46
-6 -71 -9 -25 -3 -58 -8 -75 -11 -16 -3 -43 -7 -60 -10 -16 -3 -41 -8 -55 -11
-14 -3 -38 -7 -54 -9 -15 -2 -36 -7 -46 -10 -10 -3 -27 -7 -37 -9 -29 -6 -186
-46 -203 -52 -8 -3 -17 -6 -20 -6 -3 -1 -36 -12 -75 -25 -38 -14 -74 -26 -80
-27 -5 -2 -21 -7 -35 -13 -14 -6 -51 -20 -84 -32 -112 -42 -319 -140 -445
-213 -46 -26 -85 -48 -87 -48 -8 0 -252 -167 -307 -211 -34 -27 -67 -52 -72
-56 -73 -55 -214 -184 -325 -298 -67 -68 -109 -117 -240 -273 -11 -13 -20 -26
-20 -28 0 -3 -22 -35 -50 -72 -65 -87 -63 -85 -77 -108 -68 -108 -131 -214
-143 -239 -8 -16 -18 -33 -23 -36 -5 -3 -8 -9 -8 -13 0 -3 -21 -52 -48 -108
-55 -116 -65 -140 -63 -150 1 -5 -3 -8 -10 -8 -6 0 -9 -3 -5 -6 3 -4 -3 -24
-13 -45 -11 -21 -22 -46 -24 -56 -3 -19 -12 -44 -26 -78 -16 -37 -83 -273 -96
-340 -35 -177 -45 -241 -61 -395 -9 -93 -9 -504 0 -585 24 -201 22 -187 31
-245 10 -63 14 -85 16 -85 1 0 3 -15 6 -34 4 -35 9 -58 19 -101 3 -14 8 -36
10 -50 3 -20 34 -142 79 -315 1 -5 6 -26 10 -45 5 -19 11 -39 14 -45 4 -5 7
-17 9 -25 2 -13 39 -138 50 -170 33 -91 84 -238 88 -250 2 -8 17 -49 33 -90
16 -41 51 -129 77 -195 26 -66 53 -133 60 -150 57 -127 75 -169 75 -179 0 -7
6 -18 13 -25 6 -6 12 -15 13 -19 1 -12 14 -42 65 -151 27 -57 49 -107 49 -112
0 -5 5 -9 12 -9 6 0 8 -3 5 -6 -4 -4 9 -37 27 -73 19 -36 68 -133 109 -216 42
-82 94 -184 116 -225 22 -41 45 -84 50 -95 10 -22 148 -273 205 -373 20 -35
36 -68 36 -73 0 -5 5 -9 10 -9 6 0 10 -4 10 -9 0 -9 53 -106 88 -161 9 -14 17
-27 17 -30 0 -3 12 -23 26 -45 14 -22 45 -74 69 -115 24 -41 47 -76 52 -78 4
-2 8 -12 8 -22 0 -10 4 -20 8 -22 4 -1 19 -21 32 -43 13 -22 38 -62 55 -90
154 -243 221 -350 224 -359 2 -5 8 -15 13 -21 5 -5 69 -102 143 -215 322 -493
864 -1262 940 -1334 95 -90 205 -153 318 -182 9 -2 27 -7 40 -10 38 -10 200
-13 242 -4 70 14 83 18 145 41 33 12 60 26 60 30 0 5 7 9 15 9 19 0 107 64
155 112 35 34 104 123 179 230 25 35 51 70 58 78 14 16 192 268 283 401 30 44
61 86 68 94 6 7 12 18 12 24 0 6 4 11 8 11 5 0 17 16 28 35 10 19 22 35 26 35
5 0 8 6 8 14 0 8 7 21 15 29 15 15 245 357 245 364 0 2 5 9 11 16 21 24 139
209 139 218 0 5 4 9 9 9 5 0 14 13 21 30 7 16 17 30 23 30 6 0 8 3 5 6 -5 4
61 114 90 149 5 6 11 15 13 21 2 5 36 60 74 122 103 166 114 184 132 220 9 17
20 32 25 32 4 0 8 5 8 11 0 7 17 39 38 73 21 34 42 68 45 76 4 8 15 29 26 45
58 94 171 296 171 306 0 5 3 9 8 9 4 0 18 21 30 48 13 26 34 65 46 87 31 55
94 172 150 278 25 49 49 94 53 100 4 7 8 19 10 27 1 8 7 16 12 18 6 2 11 8 11
12 0 5 47 105 104 222 124 255 160 331 215 463 24 55 47 107 52 115 5 8 12 22
15 30 3 8 27 67 51 130 25 63 48 120 52 125 3 6 6 15 7 20 1 6 21 58 43 118
71 188 191 562 216 674 2 10 11 43 20 73 8 30 17 66 20 80 2 14 14 68 25 120
12 52 23 111 26 130 2 19 6 42 9 50 2 8 7 38 10 65 4 28 9 61 11 75 5 27 13
88 20 160 3 25 6 140 8 255 4 219 -13 454 -40 575 -3 14 -8 39 -10 55 -4 36
-19 101 -50 220 -89 343 -233 662 -437 970 -74 112 -150 216 -180 247 -7 7
-23 27 -36 43 -74 96 -259 285 -387 395 -122 106 -428 330 -449 330 -2 0 -39
22 -82 48 -289 178 -762 355 -1108 416 -16 2 -39 7 -50 9 -18 4 -72 13 -135
22 -14 2 -52 7 -85 11 -33 4 -73 9 -90 11 -41 6 -572 12 -578 7z m452 -2094
c31 -6 70 -13 86 -16 68 -11 205 -58 285 -97 47 -22 87 -41 90 -41 15 -3 146
-92 210 -143 71 -56 221 -210 229 -236 2 -7 7 -14 11 -17 9 -6 80 -108 80
-114 0 -3 14 -28 30 -56 17 -28 30 -57 30 -65 0 -8 4 -15 9 -15 5 0 11 -10 14
-22 3 -13 19 -61 36 -108 83 -239 98 -501 41 -745 -11 -49 -28 -108 -36 -130
-9 -22 -16 -42 -16 -45 -1 -12 -13 -41 -50 -120 -124 -263 -338 -487 -598
-628 -78 -42 -207 -95 -272 -112 -94 -25 -116 -29 -163 -36 -27 -3 -70 -9 -95
-13 -141 -20 -350 4 -560 64 -83 23 -315 139 -350 175 -3 3 -25 18 -49 34 -37
24 -220 200 -259 250 -50 63 -178 276 -166 276 4 0 1 6 -5 14 -14 17 -77 191
-86 237 -4 19 -10 54 -15 79 -15 73 -24 179 -23 260 1 115 7 210 13 210 3 0 7
15 8 33 6 76 68 261 128 379 38 76 97 169 153 242 39 50 181 189 228 223 29
21 53 41 53 46 0 4 4 7 10 7 5 0 26 12 47 26 66 46 274 143 279 131 0 -1 7 3
15 9 8 6 28 15 44 19 17 4 37 9 45 11 67 17 140 30 145 26 3 -3 5 -1 5 4 0 5
30 10 66 11 37 1 68 4 70 6 8 7 228 -3 283 -13z"/>
<path d="M4965 7453 c-111 -21 -211 -64 -301 -129 -64 -45 -157 -147 -184
-201 -8 -15 -22 -39 -30 -53 -17 -26 -46 -113 -58 -172 -8 -40 -8 -233 0 -268
17 -71 23 -90 50 -149 55 -121 147 -228 252 -296 53 -33 122 -68 128 -63 2 1
14 -5 28 -12 14 -8 34 -15 45 -17 11 -1 40 -7 65 -12 56 -12 235 -7 275 9 17
6 31 11 33 11 7 -2 58 16 84 30 10 5 22 9 28 9 6 0 16 5 23 10 7 6 35 25 62
43 108 68 210 199 259 328 33 88 40 129 40 239 1 120 -12 193 -49 275 -8 17
-15 35 -16 40 -1 6 -9 16 -16 23 -7 7 -13 20 -13 28 0 8 -4 14 -9 14 -5 0 -12
8 -16 19 -13 43 -200 211 -234 211 -6 0 -11 4 -11 8 0 7 -55 31 -77 34 -5 1
-23 7 -40 15 -18 7 -33 10 -33 7 0 -4 -7 -1 -16 7 -15 12 -220 22 -269 12z"/>
</g>
</svg>
